# xmcd
#
# Track frame offsets:
#	150
#	14585
#	25457
#	37580
#	53165
#	64575
#	76950
#	91807
#	106250
#	121122
#	135797
#	150337
#	164707
#	177127
#
# Disc length: 2563 seconds
#
# Revision: 0
# Processed by: cddbd v1.5.2PL0 Copyright (c) Steve Scherf et al.
# Submitted via: EasyCDDAExtractor 16.0.6.1
#
DISCID=9b0a010e
DTITLE=Χατζοπούλου Μαριάννα - Η χρυσή εποχή 08-Χατζοπούλου Μαριάννα
DYEAR=1985
DGENRE=Ελαφρολαϊκή
TTITLE0=Η μάννα μου με δέρνει [Νίκου Ρούτσου]
TTITLE1=Μέσα στο νερό της λίμνης [Λ. Μαρκέα-Θ. Σοφού]
TTITLE2=Ρίκο ρίκο ρίκοκο (Τ' αγόρι μου)[Τ. Μωράκη-Γ. Γιαννακόπουλου]
TTITLE3=Τα φύλλα κιτρινήσανε [Κ. Μάνεση-Τ. Μωράκη]
TTITLE4=Το νυφικό σου φόρεμα [Γ. Μουζάκη-Γ. Γιαννακόπουλου]
TTITLE5=Κυριακή ξημερώνει [Κ. Βίρβου-Β. Καραπατάκη]
TTITLE6=Τι να το κάνω, πως είσαι ωραίος [Απ. Καλδάρα]
TTITLE7=Άλλος σ' αγάπησε κι άλλος σε παίρνει [Άκη Σμυρναίου-Κ. Μάνεση]
TTITLE8=Ταίρι μου αγαπημένο [Δ. Κυριαζόπουλου]
TTITLE9=Στου χωριού σου το στενό [Λ. Κλάδου-Ν. Μανιά]
TTITLE10=Όποιος αγαπά... [Άκη Σμυρναίου-Κ. Κοφινιώτη]
TTITLE11=Καλύτερα ο θάνατος παρά ο χωρισμός [Γιάννη Βέλλα]
TTITLE12=Μικρή χωριατοπούλα μου [Γ. Μουζάκη-Γ. Φερμάνογλου]
TTITLE13=Εσύ που είσαι μάγισσα... [Γιάννη Βέλλα]
EXTD=
EXTT0=
EXTT1=
EXTT2=
EXTT3=
EXTT4=
EXTT5=
EXTT6=
EXTT7=
EXTT8=
EXTT9=
EXTT10=
EXTT11=
EXTT12=
EXTT13=
PLAYORDER=
